<svg xmlns="http://www.w3.org/2000/svg" shape-rendering="geometricPrecision" text-rendering="geometricPrecision" image-rendering="optimizeQuality" fill-rule="evenodd" clip-rule="evenodd" viewBox="0 0 339 511.81"><path fill="#194794" fill-rule="nonzero" d="M63.545 343.48h24.381c3.555 28.309 19.38 47.689 40.043 58.581 11.966 6.308 25.556 9.596 39.251 9.833 13.647.236 27.415-2.563 39.792-8.424 22.008-10.422 39.688-30.487 44.761-59.99h25.505c16.984 0 32.418 6.942 43.599 18.123C332.059 372.784 339 388.219 339 405.202v94.674c0 6.59-5.343 11.934-11.933 11.934H11.933C5.343 511.81 0 506.466 0 499.876v-92.851c0-17.487 7.146-33.376 18.657-44.888 11.512-11.511 27.402-18.657 44.888-18.657z"/><path fill="#D99D69" d="M231.866 341.975H107.771c2.938 20.446 14.497 34.65 29.443 42.528 9.223 4.862 19.722 7.397 30.317 7.58 10.642.184 21.375-1.995 31.013-6.559 16.101-7.625 29.116-22.104 33.322-43.549z"/><path fill="#CCDFFF" fill-rule="nonzero" d="M107.608 340.77c2.65 21.094 14.369 35.701 29.606 43.733 9.223 4.862 19.722 7.397 30.317 7.58 10.642.184 21.375-1.995 31.013-6.559 16.516-7.821 29.785-22.852 33.631-45.22l19.598 3.176c-5.073 29.503-22.753 49.568-44.761 59.99-12.377 5.861-26.145 8.66-39.792 8.424-13.695-.237-27.285-3.525-39.251-9.833-20.663-10.892-36.488-30.272-40.043-58.581l19.682-2.71z"/><path fill="#2B2B2B" d="M18.904 201.385c-4.369-80.248-1.117-165.902 108.88-169.143 37.955-29.998 51.407-54.296 40.548 0 131.78-12.601 162.031 54.404 151.893 168.471 6.903 15.795 9.899 29.563 6.395 41.723-1.761-8.176-7.471-15.546-17.605-18.12l-11.897 14.935 4.303-25.06c-22.574-16.804-27.756-48.574-28.351-84.292-69.074 61.504-138.344 60.971-207.821.506 1.235 42.943-8.151 70.553-27.844 83.28l4.389 25.51-12.743-15.385c-13.072 5.183-17.795 15.905-16.846 25.894-8.179-13.172-5.659-28.831 6.699-48.319zm281.506 69.76l-.003.004.002-.004h.001z"/><path fill="#FEB97E" d="M37.405 213.685c19.693-12.727 29.08-40.338 27.845-83.28 69.476 60.465 138.746 60.999 207.82-.506.595 35.718 5.777 67.488 28.351 84.292l-4.303 25.06 11.897-14.935c28.391 7.211 22.083 52.059-8.606 46.83-46.392 113.502-204.949 126.458-261.485 0-25.82 5.92-39.98-35.397-9.872-47.336l12.742 15.386-4.389-25.511z"/></svg>